<?xml version="1.0" encoding="iso-8859-1"?>
<!-- Generator: Adobe Illustrator 19.0.0, SVG Export Plug-In . SVG Version: 6.00 Build 0)  -->
<svg version="1.1" id="Capa_1" xmlns="http://www.w3.org/2000/svg" xmlns:xlink="http://www.w3.org/1999/xlink" x="0px" y="0px"
	 viewBox="0 0 512 512" style="enable-background:new 0 0 512 512;" xml:space="preserve">
<path style="fill:#FFC107;" d="M394.667,256C318.122,255.906,256.094,193.878,256,117.333c0-3.605,0.277-7.125,0.533-10.667H96
	c-5.891,0.005-10.662,4.785-10.657,10.677c0.001,0.655,0.062,1.309,0.182,1.953l32,170.667c0.944,5.043,5.344,8.699,10.475,8.704
	h292.992c26.9,0.003,49.592-20.027,52.928-46.72l2.901-23.168C453.072,246.443,424.265,255.988,394.667,256z"/>
<g>
	<circle style="fill:#455A64;" cx="394.667" cy="458.667" r="53.333"/>
	<circle style="fill:#455A64;" cx="181.333" cy="458.667" r="53.333"/>
	<path style="fill:#455A64;" d="M437.333,384H191.125c-35.561-0.074-66.163-25.156-73.216-60.011L65.92,64H10.667
		C4.776,64,0,59.224,0,53.333s4.776-10.667,10.667-10.667h64c5.07-0.001,9.439,3.566,10.453,8.533l53.717,268.587
		c5.035,24.896,26.888,42.817,52.288,42.88h246.208c5.891,0,10.667,4.776,10.667,10.667S443.224,384,437.333,384z"/>
</g>
<circle style="fill:#4CAF50;" cx="394.667" cy="117.333" r="117.333"/>
<g>
	<path style="fill:#FAFAFA;" d="M416,170.667h-64c-5.891,0-10.667-4.776-10.667-10.667V74.667C341.333,68.776,346.109,64,352,64h64
		c17.673,0.012,31.99,14.349,31.978,32.022c-0.005,7.864-2.906,15.45-8.149,21.311c11.782,13.173,10.655,33.403-2.518,45.185
		C431.45,167.761,423.864,170.661,416,170.667z M362.667,149.333H416c5.891,0,10.667-4.776,10.667-10.667S421.891,128,416,128
		h-53.333V149.333z M362.667,106.667H416c5.891,0,10.667-4.776,10.667-10.667c0-5.891-4.776-10.667-10.667-10.667h-53.333V106.667z"
		/>
	<path style="fill:#FAFAFA;" d="M373.333,85.333c-5.891,0-10.667-4.776-10.667-10.667V53.333c0-5.891,4.776-10.667,10.667-10.667
		S384,47.442,384,53.333v21.333C384,80.558,379.224,85.333,373.333,85.333z"/>
	<path style="fill:#FAFAFA;" d="M373.333,192c-5.891,0-10.667-4.776-10.667-10.667V160c0-5.891,4.776-10.667,10.667-10.667
		S384,154.109,384,160v21.333C384,187.224,379.224,192,373.333,192z"/>
	<path style="fill:#FAFAFA;" d="M416,85.333c-5.891,0-10.667-4.776-10.667-10.667V53.333c0-5.891,4.776-10.667,10.667-10.667
		c5.891,0,10.667,4.776,10.667,10.667v21.333C426.667,80.558,421.891,85.333,416,85.333z"/>
	<path style="fill:#FAFAFA;" d="M416,192c-5.891,0-10.667-4.776-10.667-10.667V160c0-5.891,4.776-10.667,10.667-10.667
		c5.891,0,10.667,4.776,10.667,10.667v21.333C426.667,187.224,421.891,192,416,192z"/>
</g>
<g>
</g>
<g>
</g>
<g>
</g>
<g>
</g>
<g>
</g>
<g>
</g>
<g>
</g>
<g>
</g>
<g>
</g>
<g>
</g>
<g>
</g>
<g>
</g>
<g>
</g>
<g>
</g>
<g>
</g>
</svg>
