<?xml version="1.0" encoding="iso-8859-1"?>
<!-- Generator: Adobe Illustrator 19.0.0, SVG Export Plug-In . SVG Version: 6.00 Build 0)  -->
<svg version="1.1" id="Capa_1" xmlns="http://www.w3.org/2000/svg" xmlns:xlink="http://www.w3.org/1999/xlink" x="0px" y="0px"
	 viewBox="0 0 512.001 512.001" style="enable-background:new 0 0 512.001 512.001;" xml:space="preserve">
<g>
	<g>
		<path fill="#fff" d="M327.051,477.245l-2.94-18.159c-0.911-5.618-5.703-9.696-11.395-9.696H199.285c-5.691,0-10.482,4.078-11.394,9.697
			l-2.94,18.157c-0.542,3.346,0.406,6.745,2.604,9.326c2.196,2.582,5.4,4.062,8.789,4.062h119.313c3.39,0,6.594-1.48,8.79-4.062
			C326.644,483.989,327.593,480.59,327.051,477.245z M200.407,475.632l1.821-11.242h107.546l1.821,11.242H200.407z"/>
	</g>
</g>
<g>
	<g>
		<path fill="#fff" d="M489.02,57.473l-2.911-8.336c-2.178-6.236-9.027-9.537-15.261-7.359l-167.167,58.386L278.343,92.7
			c9.894-8.688,15.552-21.168,15.552-34.361V37.894C293.895,16.999,276.896,0,256.001,0s-37.894,16.999-37.894,37.894V58.34
			c0,13.192,5.659,25.674,15.552,34.361l-25.337,7.464L41.154,41.777c-6.237-2.176-13.082,1.125-15.262,7.361l-2.911,8.335
			c-5.02,14.374,1.512,30.032,14.688,36.801l-2.012,5.759c-2.658,7.613-2.193,15.806,1.31,23.069
			c3.503,7.264,9.625,12.729,17.238,15.387l2.18,0.761l-1.916,5.485c-5.488,15.715,2.832,32.967,18.548,38.457l12.093,4.224
			l-1.916,5.485c-5.488,15.716,2.832,32.967,18.548,38.457l110.623,38.637l11.466,128.546h-11.5
			c-6.024,0-11.086,4.318-12.036,10.267l-3.068,19.215h-15.043c-6.319,0-11.64,4.528-12.65,10.767l-9.45,58.347
			c-0.602,3.715,0.452,7.489,2.892,10.355c2.438,2.866,5.996,4.509,9.76,4.509H339.27c3.764,0,7.321-1.644,9.76-4.509
			c2.439-2.866,3.493-6.64,2.892-10.355l-9.45-58.347c-1.011-6.238-6.331-10.766-12.65-10.766h-15.043l-3.068-19.215
			c-0.95-5.949-6.012-10.267-12.036-10.267h-11.499l4.582-51.375c0.367-4.126-2.679-7.769-6.805-8.137
			c-4.13-0.381-7.769,2.677-8.137,6.804l-4.701,52.708h-9.61V251c0-4.142-3.357-7.5-7.5-7.5c-4.143,0-7.5,3.358-7.5,7.5v147.541
			h-9.612l-14.245-159.7c-0.372-4.192-2.039-8.078-4.82-11.236l-10.219-11.613c-0.014-0.016-0.027-0.032-0.041-0.047l-9.12-10.365
			c-0.655-0.745-1.05-1.661-1.14-2.649l-6.764-74.402c-0.414-4.559,2.473-8.808,6.864-10.102l44.803-13.198
			c3.19-0.94,5.381-3.869,5.381-7.194v-8.003c0-2.199-0.965-4.287-2.64-5.712l-3.019-2.568
			c-6.879-5.849-10.823-14.383-10.823-23.412V37.894C233.107,25.27,243.378,15,256.001,15c12.624,0,22.895,10.27,22.895,22.894
			V58.34c0,9.029-3.944,17.563-10.824,23.413l-3.018,2.567c-1.675,1.425-2.64,3.513-2.64,5.712v8.003
			c0,3.326,2.19,6.254,5.381,7.194l44.803,13.198c4.392,1.294,7.278,5.542,6.864,10.102l-0.855,9.405c0,0.001,0,0.001,0,0.002
			l-5.909,64.995c-0.09,0.988-0.484,1.904-1.141,2.649l-19.379,22.023c-2.779,3.156-4.446,7.04-4.822,11.234l-6.478,72.626
			c-0.367,4.126,2.679,7.769,6.805,8.137c4.111,0.368,7.769-2.678,8.137-6.804l3.817-42.802l110.625-38.637
			c15.715-5.49,24.035-22.741,18.546-38.457l-1.915-5.484l12.094-4.224c15.715-5.49,24.035-22.741,18.546-38.457l-1.915-5.485
			l2.18-0.761c7.613-2.659,13.735-8.124,17.239-15.387c3.503-7.264,3.968-15.457,1.308-23.07l-2.011-5.758
			C487.51,87.506,494.041,71.847,489.02,57.473z M327.96,443.022L336.703,497H175.3l8.743-53.978H327.96z M279.982,413.541h17.291
			l2.313,14.481h-87.169l2.312-14.481c0.003,0,0,0,0.003,0H279.982z M59.15,124.329c-3.83-1.338-6.91-4.087-8.673-7.742
			c-1.763-3.655-1.996-7.777-0.659-11.607l1.916-5.485l35.543,12.414c0.818,0.286,1.652,0.421,2.473,0.421
			c3.101,0,6.001-1.937,7.081-5.029c1.365-3.911-0.697-8.188-4.608-9.554L49.602,82.861c-0.001,0-0.002-0.001-0.002-0.001
			l-3.125-1.091c-7.907-2.762-12.093-11.442-9.331-19.35l1.915-5.485l147.646,51.568c-5.663,4.577-9.156,11.532-9.195,19.033
			l-52.265-18.254c-3.909-1.365-8.188,0.698-9.553,4.607c-1.366,3.911,0.696,8.188,4.607,9.554l58.578,20.459l2.088,22.974
			L68.411,127.563L59.15,124.329z M77.963,169.032c-7.908-2.762-12.094-11.442-9.332-19.35l1.915-5.485l111.912,39.087l1.91,21.006
			c0.062,0.68,0.17,1.348,0.299,2.01l-91.246-31.869L77.963,169.032z M199.699,227.438l8.867,10.077
			c0.656,0.746,1.05,1.663,1.138,2.655l1.198,13.425l-104.214-36.399c-7.907-2.762-12.094-11.442-9.333-19.349l1.916-5.485
			L199.699,227.438z M405.316,217.197l-104.217,36.399l1.197-13.423c0.089-0.993,0.483-1.912,1.142-2.659l8.865-10.075
			l100.428-35.076l1.915,5.484C417.409,205.754,413.222,214.435,405.316,217.197z M434.041,169.032l-19.174,6.697L327.336,206.3
			c0.129-0.662,0.238-1.33,0.299-2.01l1.91-21.005l111.911-39.087l1.915,5.484C446.134,157.589,441.948,166.27,434.041,169.032z
			 M461.526,116.587c-1.763,3.654-4.844,6.404-8.674,7.742l-9.261,3.234c-0.001,0-0.001,0.001-0.002,0.001l-112.553,39.311
			l2.089-22.974l127.143-44.407l1.916,5.486C463.522,108.81,463.288,112.932,461.526,116.587z M465.528,81.769l-3.125,1.091
			l-127.91,44.674c-0.039-7.501-3.531-14.456-9.195-19.033l147.646-51.568l1.915,5.484
			C477.621,70.327,473.434,79.007,465.528,81.769z"/>
	</g>
</g>
<g>
</g>
<g>
</g>
<g>
</g>
<g>
</g>
<g>
</g>
<g>
</g>
<g>
</g>
<g>
</g>
<g>
</g>
<g>
</g>
<g>
</g>
<g>
</g>
<g>
</g>
<g>
</g>
<g>
</g>
</svg>
