<?xml version="1.0" encoding="iso-8859-1"?>
<!-- Generator: Adobe Illustrator 19.0.0, SVG Export Plug-In . SVG Version: 6.00 Build 0)  -->
<svg version="1.1" id="Layer_1" xmlns="http://www.w3.org/2000/svg" xmlns:xlink="http://www.w3.org/1999/xlink" x="0px" y="0px"
	 viewBox="0 0 512.021 512.021" style="enable-background:new 0 0 512.021 512.021;" xml:space="preserve">
<g>
	<g>
		<path fill="#ffab5c" d="M100.768,385.131l-42.667-21.333c-5.248-2.581-11.669-0.491-14.315,4.779l-21.333,42.667
			c-2.624,5.269-0.491,11.669,4.779,14.315c1.557,0.768,3.179,1.131,4.779,1.131c3.904,0,7.68-2.155,9.536-5.888l16.555-33.131
			l33.131,16.555c5.291,2.603,11.691,0.512,14.315-4.779C108.171,394.176,106.037,387.776,100.768,385.131z"/>
	</g>
</g>
<g>
	<g>
		<path fill="#ffab5c" d="M160.075,469.355c-54.784-0.171-89.813-49.131-96.128-97.387c-0.789-5.867-6.507-10.048-11.968-9.195
			c-5.867,0.768-9.963,6.123-9.216,11.968c7.509,57.451,50.197,115.733,117.205,115.947c0.021,0,0.021,0,0.043,0
			c5.888,0,10.667-4.779,10.688-10.645C170.72,474.176,165.941,469.376,160.075,469.355z"/>
	</g>
</g>
<g>
	<g>
		<path fill="#ffab5c" d="M484.768,86.4c-5.269-2.56-11.669-0.491-14.315,4.779l-16.555,33.131l-33.131-16.555
			c-5.269-2.581-11.669-0.491-14.315,4.779c-2.624,5.269-0.491,11.669,4.779,14.315l42.667,21.333
			c1.557,0.768,3.179,1.131,4.779,1.131c3.904,0,7.68-2.155,9.536-5.931l21.333-42.667C492.171,95.445,490.037,89.045,484.768,86.4z
			"/>
	</g>
</g>
<g>
	<g>
		<path fill="#ffab5c" d="M469.259,137.259c-7.509-57.451-50.197-115.733-117.205-115.947c-0.021,0-0.021,0-0.043,0
			c-5.867,0-10.645,4.779-10.667,10.645c-0.021,5.867,4.757,10.667,10.624,10.688c54.784,0.171,89.813,49.131,96.128,97.387
			c0.704,5.376,5.291,9.28,10.56,9.28c0.491,0,0.939-0.021,1.387-0.085C465.909,148.459,470.005,143.104,469.259,137.259z"/>
	</g>
</g>
<g>
	<g>
		<path fill="#ffab5c" d="M277.344,288.021c0,15.168,18.667,28.267,42.667,31.317v-62.635C296.011,259.755,277.344,272.853,277.344,288.021z"/>
	</g>
</g>
<g>
	<g>
		<path fill="#ffab5c" d="M341.344,342.037v62.635c24.021-3.051,42.667-16.171,42.667-31.317C384.011,358.187,365.344,345.088,341.344,342.037z"/>
	</g>
</g>
<g>
	<g>
		<path fill="#ffab5c" d="M330.677,149.355c-99.989,0-181.333,81.344-181.333,181.333s81.344,181.333,181.333,181.333
			s181.333-81.344,181.333-181.333S430.667,149.355,330.677,149.355z M405.344,373.355c0,27.285-27.413,48.96-64,52.587v11.413
			c0,5.888-4.779,10.667-10.667,10.667s-10.667-4.779-10.667-10.667v-11.413c-36.587-3.627-64-25.301-64-52.587
			c0-5.888,4.779-10.667,10.667-10.667s10.667,4.779,10.667,10.667c0,15.168,18.667,28.267,42.667,31.317v-64.064
			c-36.587-3.627-64-25.301-64-52.587s27.413-48.96,64-52.587v-11.413c0-5.888,4.779-10.667,10.667-10.667
			s10.667,4.779,10.667,10.667v11.413c36.587,3.627,64,25.301,64,52.587c0,5.888-4.779,10.667-10.667,10.667
			s-10.667-4.779-10.667-10.667c0-15.168-18.667-28.267-42.667-31.317v64.064C377.952,324.395,405.344,346.069,405.344,373.355z"/>
	</g>
</g>
<g>
	<g>
		<path fill="#ffab5c" d="M316.896,128.704C302.304,55.424,237.536,0,160.011,0c-88.235,0-160,71.765-160,160
			c0,77.525,55.403,142.293,128.704,156.885c1.643-24.085,7.595-46.976,16.917-68.032c-0.832,1.941-1.856,3.755-2.645,5.696
			c-33.365-5.376-57.643-26.176-57.643-51.883V192H74.677c-5.888,0-10.667-4.779-10.667-10.667s4.779-10.667,10.667-10.667h10.667
			v-21.333H74.677c-5.888,0-10.667-4.779-10.667-10.667S68.789,128,74.677,128h10.667v-10.667C85.344,87.424,118.133,64,160.011,64
			s74.667,23.424,74.667,53.333c0,5.888-4.779,10.667-10.667,10.667s-10.667-4.779-10.667-10.667c0-17.344-24.427-32-53.333-32
			s-53.333,14.656-53.333,32V128h74.667c5.888,0,10.667,4.779,10.667,10.667s-4.779,10.667-10.667,10.667h-74.667v21.333h74.667
			c5.888,0,10.667,4.779,10.667,10.667c0,0.96-0.299,1.792-0.533,2.688C224.672,152.512,268.384,131.989,316.896,128.704z"/>
	</g>
</g>
<g>
	<g>
		<path fill="#ffab5c" d="M184.032,191.488c-0.875,0.213-1.728,0.533-2.688,0.533h-74.667v10.667c0,15.808,20.331,29.227,45.824,31.531
			c-1.472,2.688-2.581,5.589-3.904,8.363C157.749,223.723,169.76,206.528,184.032,191.488z"/>
	</g>
</g>
<g>
</g>
<g>
</g>
<g>
</g>
<g>
</g>
<g>
</g>
<g>
</g>
<g>
</g>
<g>
</g>
<g>
</g>
<g>
</g>
<g>
</g>
<g>
</g>
<g>
</g>
<g>
</g>
<g>
</g>
</svg>
