<svg id="Capa_1" enable-background="new 0 0 512 512" height="512" viewBox="0 0 512 512" width="512" xmlns="http://www.w3.org/2000/svg"><g><g><path d="m57.759 294.96h-50.278c-3.866 0-7-3.134-7-7v-70.574c0-3.866 3.134-7 7-7h50.278z" fill="#b1abb5"/></g><g><path d="m57.759 422.99h-50.278c-3.866 0-7-3.134-7-7v-70.574c0-3.866 3.134-7 7-7h50.278z" fill="#b1abb5"/></g><g><path d="m14.972 210.385v53.243c0 8.003-6.488 14.491-14.491 14.491v9.855c0 3.858 3.128 6.986 6.986 6.986h50.293v-84.574h-42.788z" fill="#786e79"/></g><g><path d="m14.972 338.415v53.243c0 8.003-6.488 14.491-14.491 14.491v9.855c0 3.858 3.128 6.986 6.986 6.986h50.293v-84.574h-42.788z" fill="#786e79"/></g><g><path d="m256.516 483.086h-141.382c-3.866 0-7-3.134-7-7v-54.995h155.381v54.995c.001 3.866-3.133 7-6.999 7z" fill="#fba615"/></g><g><path d="m241.909 421.091v35.399c0 3.858-3.128 6.986-6.986 6.986h-126.789v12.624c0 3.858 3.128 6.986 6.986 6.986h141.41c3.858 0 6.986-3.128 6.986-6.986v-55.01h-21.607z" fill="#f88604"/></g><g><path d="m458.763 445.474h-414.884v-271.69h414.884c29.402 0 53.237 23.835 53.237 53.237v165.217c0 29.401-23.835 53.236-53.237 53.236z" fill="#786e79"/></g><g><path d="m37.102 452.959c-4.134 0-7.485-3.351-7.485-7.485v-304.683h-22.132c-4.134 0-7.485-3.351-7.485-7.485s3.351-7.485 7.485-7.485h29.618c4.134 0 7.485 3.351 7.485 7.485v312.167c-.001 4.135-3.352 7.486-7.486 7.486z" fill="#b1abb5"/></g><g><circle cx="211.581" cy="309.629" fill="#b1abb5" r="71.143"/></g><g><g><path d="m252.629 251.541c8.212 11.6 13.054 25.754 13.054 41.048 0 39.291-31.852 71.143-71.143 71.143-15.294 0-29.448-4.842-41.048-13.054 12.885 18.201 34.091 30.095 58.088 30.095 39.291 0 71.143-31.852 71.143-71.143.001-23.998-11.893-45.204-30.094-58.089z" fill="#786e79"/></g></g><g><circle cx="387.566" cy="309.629" fill="#f0f0f3" r="21.343"/></g><g><circle cx="387.566" cy="309.629" fill="#b1abb5" r="71.143"/></g><g><g><path d="m428.614 251.541c8.212 11.6 13.054 25.754 13.054 41.048 0 39.291-31.852 71.143-71.143 71.143-15.294 0-29.448-4.842-41.048-13.054 12.885 18.201 34.091 30.095 58.088 30.095 39.291 0 71.143-31.852 71.143-71.143.001-23.998-11.893-45.204-30.094-58.089z" fill="#786e79"/></g></g><path d="m387.567 231.002c-43.356 0-78.628 35.272-78.628 78.627s35.272 78.627 78.628 78.627c43.355 0 78.627-35.272 78.627-78.627s-35.272-78.627-78.627-78.627zm55.029 110.569c-10.932-.064-21.406-4.385-29.2-12.181-3.219-3.219-5.854-6.883-7.854-10.909 4.635 1.204 9.408 1.827 14.262 1.827 11.311 0 22.192-3.369 31.392-9.506-.205 11.195-3.31 21.689-8.6 30.769zm-38.682 29.578c-7.695-7.772-12.056-18.248-12.056-29.283 0-4.554.728-9.008 2.16-13.268 2.426 4.13 5.361 7.945 8.793 11.376 7.989 7.989 18.048 13.306 28.878 15.476-7.673 7.391-17.181 12.882-27.775 15.699zm-36.109-35.69c3.221-3.221 6.886-5.855 10.911-7.855-1.205 4.635-1.827 9.408-1.827 14.262 0 11.311 3.369 22.191 9.506 31.391-11.196-.204-21.691-3.309-30.77-8.6.062-10.925 4.386-21.404 12.18-29.198zm-35.268-57.772c10.931.061 21.405 4.387 29.2 12.182 3.219 3.219 5.854 6.884 7.854 10.91-4.635-1.205-9.408-1.827-14.262-1.827-11.311 0-22.192 3.369-31.392 9.506.204-11.197 3.309-21.692 8.6-30.771zm38.681-29.578c7.695 7.773 12.056 18.249 12.056 29.283 0 4.554-.728 9.008-2.16 13.268-2.426-4.129-5.361-7.945-8.793-11.377-7.99-7.99-18.052-13.299-28.885-15.469 7.674-7.393 17.185-12.886 27.782-15.705zm36.11 35.69c-3.221 3.221-6.886 5.855-10.911 7.855 1.205-4.635 1.827-9.408 1.827-14.262 0-11.311-3.369-22.192-9.506-31.391 11.197.204 21.691 3.309 30.77 8.599-.063 10.926-4.386 21.405-12.18 29.199zm41.759 9.483c-7.773 7.695-18.25 12.056-29.284 12.056-4.554 0-9.009-.729-13.269-2.16 4.129-2.425 7.944-5.36 11.378-8.793 7.989-7.99 13.297-18.054 15.467-28.886 7.395 7.673 12.889 17.185 15.708 27.783zm-123.041 32.695c7.773-7.696 18.25-12.056 29.284-12.056 4.553 0 9.008.729 13.268 2.161-4.129 2.425-7.944 5.36-11.377 8.793-7.989 7.99-13.297 18.054-15.467 28.886-7.396-7.675-12.89-17.187-15.708-27.784z" fill="#463e43"/><g><g><path d="m112.208 268.624h-38.985c-4.134 0-7.485-3.351-7.485-7.485s3.351-7.485 7.485-7.485h38.985c4.134 0 7.485 3.351 7.485 7.485s-3.351 7.485-7.485 7.485z" fill="#b1abb5"/></g><g><path d="m112.208 297.832h-38.985c-4.134 0-7.485-3.351-7.485-7.485s3.351-7.485 7.485-7.485h38.985c4.134 0 7.485 3.351 7.485 7.485s-3.351 7.485-7.485 7.485z" fill="#b1abb5"/></g><g><path d="m112.208 328.162h-38.985c-4.134 0-7.485-3.351-7.485-7.485s3.351-7.485 7.485-7.485h38.985c4.134 0 7.485 3.351 7.485 7.485s-3.351 7.485-7.485 7.485z" fill="#b1abb5"/></g><g><path d="m112.208 357.371h-38.985c-4.134 0-7.485-3.351-7.485-7.485s3.351-7.485 7.485-7.485h38.985c4.134 0 7.485 3.351 7.485 7.485s-3.351 7.485-7.485 7.485z" fill="#b1abb5"/></g></g><g><circle cx="225.772" cy="71.055" fill="#fba615" r="34.656"/></g><g><path d="m240.498 39.681c2.102 4.47 3.282 9.459 3.282 14.726 0 19.14-15.516 34.656-34.656 34.656-5.267 0-10.256-1.18-14.726-3.282 5.537 11.775 17.501 19.93 31.374 19.93 19.14 0 34.656-15.516 34.656-34.656 0-13.874-8.155-25.837-19.93-31.374z" fill="#f88604"/></g><g><path d="m225.772 113.196c-23.237 0-42.141-18.904-42.141-42.141 0-23.236 18.904-42.141 42.141-42.141 23.236 0 42.141 18.904 42.141 42.141s-18.905 42.141-42.141 42.141zm0-69.313c-14.983 0-27.172 12.189-27.172 27.172s12.189 27.172 27.172 27.172c14.982 0 27.172-12.189 27.172-27.172s-12.19-27.172-27.172-27.172z" fill="#ffeccf"/></g><g><g><circle cx="358.895" cy="142.591" fill="#fba615" r="69.313"/></g><g><path d="m394.791 83.286c6.351 10.47 10.008 22.756 10.008 35.896 0 38.28-31.032 69.313-69.313 69.313-13.14 0-25.426-3.657-35.896-10.008 12.151 20.032 34.165 33.417 59.305 33.417 38.28 0 69.313-31.032 69.313-69.313 0-25.141-13.385-47.154-33.417-59.305z" fill="#f88604"/></g><g><path d="m358.895 219.388c-42.346 0-76.797-34.451-76.797-76.797s34.45-76.797 76.797-76.797 76.797 34.451 76.797 76.797-34.45 76.797-76.797 76.797zm0-138.625c-34.092 0-61.828 27.736-61.828 61.828s27.736 61.828 61.828 61.828 61.828-27.736 61.828-61.828-27.736-61.828-61.828-61.828z" fill="#ffeccf"/></g><path d="m377.903 138.373c1.711-2.898 2.71-6.263 2.71-9.865 0-10.747-8.744-19.491-19.492-19.491h-15.157c-4.134 0-7.485 3.351-7.485 7.485v52.181c0 1.991.793 3.9 2.204 5.304 1.402 1.397 3.301 2.181 5.28 2.181h.033c.002 0 13.932-.062 17.772-.062 11.872 0 21.53-9.658 21.53-21.53.001-6.463-2.874-12.254-7.395-16.203zm-16.782-14.388c2.494 0 4.523 2.029 4.523 4.522 0 2.494-2.029 4.522-4.523 4.522-1.124 0-7.673.014-7.673.014v-9.059h7.673zm2.648 37.149c-1.92 0-6.354.016-10.32.031v-13.145l10.32-.008c3.618 0 6.561 2.943 6.561 6.561s-2.943 6.561-6.561 6.561z" fill="#ffeccf"/></g><g><circle cx="387.566" cy="309.629" fill="#f0f0f3" r="21.343"/></g><g><path d="m396.515 290.272c1.262 2.724 1.986 5.749 1.986 8.949 0 11.787-9.556 21.343-21.343 21.343-3.2 0-6.224-.724-8.949-1.986 3.386 7.311 10.769 12.394 19.357 12.394 11.787 0 21.343-9.555 21.343-21.343 0-8.587-5.083-15.97-12.394-19.357z" fill="#b1abb5"/></g><g><path d="m476.482 176.785c1.936 5.512 3.001 11.435 3.001 17.609v165.436c0 29.341-23.786 53.127-53.127 53.127h-382.477v32.517h414.994c29.341 0 53.127-23.786 53.127-53.127v-165.436c0-23.167-14.834-42.859-35.518-50.126z" fill="#453e43"/></g><path d="m211.582 231.002c-43.356 0-78.628 35.272-78.628 78.627s35.272 78.627 78.628 78.627c43.355 0 78.627-35.272 78.627-78.627s-35.272-78.627-78.627-78.627zm55.029 110.569c-10.932-.064-21.406-4.385-29.2-12.181-3.219-3.219-5.854-6.883-7.854-10.909 4.635 1.204 9.408 1.827 14.262 1.827 11.311 0 22.192-3.369 31.392-9.506-.205 11.195-3.31 21.689-8.6 30.769zm-38.682 29.578c-7.695-7.772-12.056-18.248-12.056-29.283 0-4.554.728-9.008 2.16-13.268 2.426 4.13 5.361 7.945 8.793 11.376 7.989 7.989 18.048 13.306 28.878 15.476-7.673 7.391-17.181 12.882-27.775 15.699zm-36.109-35.69c3.221-3.221 6.886-5.855 10.911-7.855-1.205 4.635-1.827 9.408-1.827 14.262 0 11.311 3.369 22.191 9.506 31.391-11.196-.204-21.691-3.309-30.77-8.6.062-10.925 4.386-21.404 12.18-29.198zm-35.268-57.772c10.931.061 21.405 4.387 29.2 12.182 3.219 3.219 5.854 6.884 7.854 10.91-4.635-1.205-9.408-1.827-14.262-1.827-11.311 0-22.192 3.369-31.392 9.506.204-11.197 3.309-21.692 8.6-30.771zm38.681-29.578c7.695 7.773 12.056 18.249 12.056 29.283 0 4.554-.728 9.008-2.16 13.268-2.426-4.129-5.361-7.945-8.793-11.377-7.99-7.99-18.052-13.299-28.885-15.469 7.674-7.393 17.185-12.886 27.782-15.705zm36.11 35.69c-3.221 3.221-6.886 5.855-10.911 7.855 1.205-4.635 1.827-9.408 1.827-14.262 0-11.311-3.369-22.192-9.506-31.391 11.197.204 21.691 3.309 30.77 8.599-.063 10.926-4.386 21.405-12.18 29.199zm41.759 9.483c-7.773 7.695-18.25 12.056-29.284 12.056-4.554 0-9.009-.729-13.269-2.16 4.129-2.425 7.944-5.36 11.378-8.793 7.989-7.99 13.297-18.054 15.467-28.886 7.395 7.673 12.889 17.185 15.708 27.783zm-123.041 32.695c7.773-7.696 18.25-12.056 29.284-12.056 4.553 0 9.008.729 13.268 2.161-4.129 2.425-7.944 5.36-11.377 8.793-7.989 7.99-13.297 18.054-15.467 28.886-7.396-7.675-12.89-17.187-15.708-27.784z" fill="#463e43"/><g><circle cx="211.581" cy="309.629" fill="#f0f0f3" r="21.343"/></g><g><path d="m220.53 290.272c1.262 2.724 1.986 5.749 1.986 8.949 0 11.787-9.556 21.343-21.343 21.343-3.2 0-6.224-.724-8.949-1.986 3.386 7.311 10.769 12.394 19.357 12.394 11.787 0 21.343-9.555 21.343-21.343 0-8.587-5.083-15.97-12.394-19.357z" fill="#b1abb5"/></g></g></svg>