<svg id="silver" xmlns="http://www.w3.org/2000/svg" width="512" height="512" viewBox="0 0 512 512">
  <g id="Group_3" data-name="Group 3">
    <g id="Group_2" data-name="Group 2">
      <path id="Path_1" data-name="Path 1" d="M256.01,0H256a256,256,0,0,0,0,512h.01a256,256,0,0,0,0-512Z" fill="#a9a9a9"/>
      <path id="Path_2" data-name="Path 2" d="M512,256A255.736,255.736,0,0,1,256.01,512V0A255.729,255.729,0,0,1,512,256Z" fill="gray"/>
      <g id="Group_1" data-name="Group 1">
        <path id="Path_3" data-name="Path 3" d="M60.57,241H30.49A224.039,224.039,0,0,1,85.86,107.07l21.41,21.41A195.112,195.112,0,0,0,60.57,241Z" fill="#d3d3d3"/>
        <path id="Path_4" data-name="Path 4" d="M107.27,383.52,85.86,404.93A223.953,223.953,0,0,1,30.49,271H60.57a195.112,195.112,0,0,0,46.7,112.52Z" fill="#d3d3d3"/>
        <path id="Path_5" data-name="Path 5" d="M128.48,404.73A195.112,195.112,0,0,0,241,451.43v30.08a224.039,224.039,0,0,1-133.93-55.37Z" fill="#d3d3d3"/>
        <path id="Path_6" data-name="Path 6" d="M383.52,404.73l21.41,21.41A223.953,223.953,0,0,1,271,481.51V451.43A195.112,195.112,0,0,0,383.52,404.73Z" fill="#d3d3d3"/>
        <path id="Path_7" data-name="Path 7" d="M107.07,85.86A223.953,223.953,0,0,1,241,30.49V60.57a195.112,195.112,0,0,0-112.52,46.7Z" fill="#d3d3d3"/>
        <path id="Path_8" data-name="Path 8" d="M404.93,85.86l-21.41,21.41A195.112,195.112,0,0,0,271,60.57V30.49A224.039,224.039,0,0,1,404.93,85.86Z" fill="#d3d3d3"/>
        <path id="Path_9" data-name="Path 9" d="M422,256c0,91.52-74.47,165.99-165.99,166H256c-91.52,0-166-74.48-166-166S164.48,90,256,90h.01C347.53,90.01,422,164.48,422,256Z" fill="#d3d3d3"/>
      </g>
      <path id="Path_10" data-name="Path 10" d="M422,256c0,91.52-74.47,165.99-165.99,166V90C347.53,90.01,422,164.48,422,256Z" fill="#8e8e8e"/>
      <path id="Path_11" data-name="Path 11" d="M376,286c0-10.924-5.9-22.976-14.623-30C370.1,248.976,376,236.924,376,226a30,30,0,0,0-30-30c-30,0-90,60-90,60s60,60,90,60A30,30,0,0,0,376,286Z" fill="gray"/>
      <path id="Path_12" data-name="Path 12" d="M136,226c0,10.924,5.9,22.976,14.623,30C141.9,263.024,136,275.076,136,286a30,30,0,0,0,30,30c30,0,90-60,90-60s-60-60-90-60A30,30,0,0,0,136,226Z" fill="#a9a9a9"/>
      <path id="Path_13" data-name="Path 13" d="M316,346a30,30,0,0,1-30,30c-10.92,0-22.97-5.9-29.99-14.61l-.01-.01C248.98,370.1,236.92,376,226,376a30,30,0,0,1-30-30c0-30,60-90,60-90l.01.01C256.93,256.94,316,316.23,316,346Z" fill="#a9a9a9"/>
      <path id="Path_14" data-name="Path 14" d="M316,346a30,30,0,0,1-30,30c-10.92,0-22.97-5.9-29.99-14.61V256.01C256.93,256.94,316,316.23,316,346Z" fill="gray"/>
      <path id="Path_15" data-name="Path 15" d="M316,166c0,29.77-59.07,89.06-59.99,89.99L256,256s-60-60-60-90a30,30,0,0,1,30-30c10.92,0,22.98,5.9,30,14.62l.01-.01C263.03,141.9,275.08,136,286,136a30,30,0,0,1,30,30Z" fill="#a9a9a9"/>
      <path id="Path_16" data-name="Path 16" d="M316,166c0,29.77-59.07,89.06-59.99,89.99V150.61C263.03,141.9,275.08,136,286,136a30,30,0,0,1,30,30Z" fill="gray"/>
      <path id="Path_17" data-name="Path 17" d="M481.51,241H451.43a195.112,195.112,0,0,0-46.7-112.52l21.41-21.41A223.953,223.953,0,0,1,481.51,241Z" fill="#d3d3d3"/>
      <path id="Path_18" data-name="Path 18" d="M451.43,271h30.08a224.039,224.039,0,0,1-55.37,133.93l-21.41-21.41A195.112,195.112,0,0,0,451.43,271Z" fill="#d3d3d3"/>
    </g>
  </g>
</svg>
